<svg version="1.1" id="Uploaded to svgrepo.com" xmlns="http://www.w3.org/2000/svg" xmlns:xlink="http://www.w3.org/1999/xlink" x="0px" y="0px"
	 width="32px" height="32px" viewBox="0 0 32 32" style="enable-background:new 0 0 32 32;" xml:space="preserve">
<style type="text/css">
	.blueprint_een{fill:#111918;}
</style>
<path class="blueprint_een" d="M18.918,2.302C18.603,0.983,17.414,0,16,0s-2.603,0.983-2.918,2.302C6.141,3.676,1,9.859,1,17
	c0,8.271,6.729,15,15,15s15-6.729,15-15C31,9.859,25.859,3.676,18.918,2.302z M15,3c0-0.551,0.449-1,1-1s1,0.449,1,1v7
	c0,0.551-0.449,1-1,1s-1-0.449-1-1V3z M16,12c1.105,0,2-0.895,2-2V7.204c4.564,0.927,8,4.958,8,9.796c0,5.523-4.477,10-10,10
	c-5.523,0-10-4.477-10-10c0-4.838,3.436-8.869,8-9.796V10C14,11.105,14.895,12,16,12z M16,30C8.832,30,3,24.168,3,17
	C3,10.633,7.72,5.149,14,4.176V6.19C8.887,7.133,5,11.618,5,17c0,6.065,4.935,11,11,11s11-4.935,11-11c0-5.382-3.887-9.867-9-10.81
	V4.176C24.28,5.149,29,10.633,29,17C29,24.168,23.168,30,16,30z"/>
</svg>