<?xml version="1.0" encoding="UTF-8"?>
<svg width="752pt" height="752pt" version="1.1" viewBox="0 0 752 752" xmlns="http://www.w3.org/2000/svg">
 <path d="m482.55 269.44v213.11c0 38.066-20.309 73.246-53.277 92.281-32.969 19.031-73.59 19.031-106.55 0-32.969-19.035-53.281-54.215-53.281-92.281v-213.11c0-38.066 20.312-73.246 53.281-92.277 32.965-19.035 73.586-19.035 106.55 0 32.969 19.031 53.277 54.211 53.277 92.277zm-186.45 213.11c0.011719 21.188 8.4414 41.5 23.43 56.473 14.988 14.973 35.309 23.383 56.496 23.371 21.184-0.007813 41.5-8.4297 56.477-23.414 14.977-14.988 23.387-35.309 23.383-56.492-0.003906-21.188-8.4219-41.504-23.406-56.484-14.98-14.98-35.301-23.395-56.484-23.395-21.191 0.027344-41.504 8.457-56.484 23.445-14.977 14.988-23.398 35.305-23.41 56.496zm0-213.11v142.74c20.195-22.992 49.316-36.172 79.918-36.172 30.602 0 59.719 13.18 79.914 36.172v-142.74c0.52734-21.531-7.6602-42.363-22.703-57.777-15.047-15.414-35.672-24.105-57.211-24.105-21.539 0-42.168 8.6914-57.211 24.105-15.043 15.414-23.23 36.246-22.707 57.777z" />
</svg>
